<svg xmlns="http://www.w3.org/2000/svg" width="1536" height="1024" viewBox="0 0 1536 1024" role="img" aria-labelledby="title desc">
  <title id="title">Interpretable QSPR with Multiple Linear Regression</title>
  <desc id="desc">Educational infographic showing standardized coefficients, Pearson correlation, KDE chemical space, and molecular structures.</desc>
  <rect width="1536" height="1024" rx="42" fill="#f6f9fc"/>
  <rect x="36" y="34" width="1464" height="180" rx="34" fill="#173f76"/>
  <text x="86" y="108" font-family="Arial, Helvetica, sans-serif" font-size="52" font-weight="700" fill="#ffffff">Interpretable QSPR</text>
  <text x="86" y="162" font-family="Arial, Helvetica, sans-serif" font-size="38" font-weight="600" fill="#dbeafe">with Multiple Linear Regression</text>
  <text x="980" y="113" font-family="Arial, Helvetica, sans-serif" font-size="24" fill="#dbeafe">Descriptors → Statistics → Chemistry</text>
  <text x="980" y="153" font-family="Arial, Helvetica, sans-serif" font-size="21" fill="#cbd5e1">12 molecular descriptors · ESOL solubility</text>

  <rect x="54" y="252" width="445" height="570" rx="28" fill="#ffffff" stroke="#bfd4eb" stroke-width="3"/>
  <text x="86" y="306" font-family="Arial, Helvetica, sans-serif" font-size="31" font-weight="700" fill="#173f76">1. Linear interpretation</text>
  <text x="86" y="347" font-family="Arial, Helvetica, sans-serif" font-size="21" fill="#475569">Standardized coefficients reveal conditional</text>
  <text x="86" y="377" font-family="Arial, Helvetica, sans-serif" font-size="21" fill="#475569">linear contributions in the MLR model.</text>
  <line x1="120" y1="720" x2="120" y2="425" stroke="#64748b" stroke-width="3"/>
  <line x1="120" y1="575" x2="440" y2="575" stroke="#64748b" stroke-width="3"/>
  <rect x="120" y="450" width="248" height="35" rx="6" fill="#3b82c4"/>
  <rect x="120" y="500" width="190" height="35" rx="6" fill="#5b9bd5"/>
  <rect x="120" y="620" width="150" height="35" rx="6" fill="#f59e42"/>
  <rect x="120" y="670" width="215" height="35" rx="6" fill="#e67e22"/>
  <text x="86" y="468" font-family="Arial, Helvetica, sans-serif" font-size="19" fill="#334155">TPSA</text>
  <text x="86" y="518" font-family="Arial, Helvetica, sans-serif" font-size="19" fill="#334155">HBA</text>
  <text x="70" y="638" font-family="Arial, Helvetica, sans-serif" font-size="19" fill="#334155">MolWt</text>
  <text x="57" y="688" font-family="Arial, Helvetica, sans-serif" font-size="19" fill="#334155">Aromatic</text>
  <text x="86" y="775" font-family="Arial, Helvetica, sans-serif" font-size="20" font-weight="600" fill="#173f76">Positive ↔ Negative effects</text>

  <rect x="545" y="252" width="445" height="570" rx="28" fill="#ffffff" stroke="#c7e7d7" stroke-width="3"/>
  <text x="578" y="306" font-family="Arial, Helvetica, sans-serif" font-size="31" font-weight="700" fill="#147a55">2. Correlation context</text>
  <text x="578" y="347" font-family="Arial, Helvetica, sans-serif" font-size="21" fill="#475569">Compare Pearson r with standardized MLR</text>
  <text x="578" y="377" font-family="Arial, Helvetica, sans-serif" font-size="21" fill="#475569">coefficients to expose multicollinearity.</text>
  <line x1="606" y1="710" x2="606" y2="432" stroke="#64748b" stroke-width="3"/>
  <line x1="606" y1="710" x2="948" y2="710" stroke="#64748b" stroke-width="3"/>
  <circle cx="648" cy="642" r="10" fill="#f59e42"/>
  <circle cx="692" cy="615" r="10" fill="#f59e42"/>
  <circle cx="730" cy="588" r="10" fill="#f59e42"/>
  <circle cx="774" cy="545" r="10" fill="#f59e42"/>
  <circle cx="818" cy="523" r="10" fill="#f59e42"/>
  <circle cx="858" cy="479" r="10" fill="#f59e42"/>
  <circle cx="898" cy="458" r="10" fill="#f59e42"/>
  <line x1="638" y1="658" x2="918" y2="438" stroke="#3b82c4" stroke-width="5"/>
  <rect x="593" y="741" width="360" height="49" rx="12" fill="#ecfdf5"/>
  <text x="621" y="773" font-family="Arial, Helvetica, sans-serif" font-size="20" font-weight="600" fill="#147a55">Pearson r ≠ conditional MLR effect</text>

  <rect x="1036" y="252" width="445" height="570" rx="28" fill="#ffffff" stroke="#f2d4b3" stroke-width="3"/>
  <text x="1068" y="306" font-family="Arial, Helvetica, sans-serif" font-size="31" font-weight="700" fill="#c85e00">3. Chemical-space view</text>
  <text x="1068" y="347" font-family="Arial, Helvetica, sans-serif" font-size="21" fill="#475569">KDE density maps identify populated regions</text>
  <text x="1068" y="377" font-family="Arial, Helvetica, sans-serif" font-size="21" fill="#475569">and connect data points to real molecules.</text>
  <ellipse cx="1248" cy="570" rx="146" ry="94" fill="#dbeafe"/>
  <ellipse cx="1248" cy="570" rx="112" ry="70" fill="#93c5fd"/>
  <ellipse cx="1248" cy="570" rx="78" ry="48" fill="#3b82c4"/>
  <g fill="#f59e42" stroke="#1e293b" stroke-width="2">
    <circle cx="1128" cy="630" r="8"/><circle cx="1165" cy="604" r="8"/><circle cx="1195" cy="590" r="8"/>
    <circle cx="1222" cy="560" r="8"/><circle cx="1250" cy="548" r="8"/><circle cx="1280" cy="532" r="8"/>
    <circle cx="1312" cy="510" r="8"/><circle cx="1350" cy="492" r="8"/><circle cx="1390" cy="472" r="8"/>
  </g>
  <rect x="1072" y="424" width="124" height="108" rx="14" fill="#ffffff" stroke="#334155" stroke-width="2"/>
  <polygon points="1110,468 1140,450 1170,468 1170,502 1140,520 1110,502" fill="none" stroke="#173f76" stroke-width="4"/>
  <line x1="1140" y1="520" x2="1165" y2="537" stroke="#173f76" stroke-width="4"/>
  <line x1="1196" y1="520" x2="1218" y2="550" stroke="#334155" stroke-width="3"/>
  <rect x="1331" y="625" width="124" height="108" rx="14" fill="#ffffff" stroke="#334155" stroke-width="2"/>
  <polygon points="1367,666 1397,648 1427,666 1427,700 1397,718 1367,700" fill="none" stroke="#173f76" stroke-width="4"/>
  <line x1="1330" y1="640" x2="1292" y2="586" stroke="#334155" stroke-width="3"/>
  <text x="1074" y="778" font-family="Arial, Helvetica, sans-serif" font-size="20" font-weight="600" fill="#c85e00">KDE → region selection → molecules</text>

  <rect x="54" y="858" width="1427" height="112" rx="24" fill="#eaf1f8"/>
  <text x="90" y="906" font-family="Arial, Helvetica, sans-serif" font-size="25" font-weight="700" fill="#173f76">Key concepts</text>
  <text x="90" y="945" font-family="Arial, Helvetica, sans-serif" font-size="22" fill="#334155">Standardized MLR coefficients  ·  Pearson correlation  ·  Multicollinearity  ·  KDE density  ·  Molecular structure interpretation</text>
</svg>